# xmcd CD database file
#
# Track frame offsets:
#	150
#	12356
#	36958
#	61987
#	80328
#	107485
#	156605
#	183830
#	207560
#	238578
#	258390
#
# Disc length: 4165 seconds
#
# Revision: 0
# Processed by: cddbd v1.5.2PL0 Copyright (c) Steve Scherf et al.
# Submitted via: CDex 1.70beta2
#
DISCID=9110430b
DTITLE=Stevie Ray Vaughn - Last Farewell
DYEAR=1990
DGENRE=Blues
TTITLE0=The House Is Rockin'
TTITLE1=Tightrope
TTITLE2=Look At Little Sister
TTITLE3=Let Me Love You Baby
TTITLE4=Leave My Girl Alone
TTITLE5=Riviera Paradise
TTITLE6=Wall of Denial
TTITLE7=Superstition
TTITLE8=Cold Shot
TTITLE9=Crossfire
TTITLE10=Vodoo Chile
EXTD=YEAR: 1990
EXTT0=
EXTT1=
EXTT2=
EXTT3=
EXTT4=
EXTT5=
EXTT6=
EXTT7=
EXTT8=
EXTT9=
EXTT10=
PLAYORDER=
